<svg data-v-423bf9ae="" xmlns="http://www.w3.org/2000/svg" viewBox="0 0 476.10329946675176 60" class="font"><!----><!----><!----><g data-v-423bf9ae="" id="2fa3017c-9eaa-4d09-b098-4fb162af5446" fill="white" transform="matrix(4.428044218111999,0,0,4.428044218111999,-5.446500357692713,-1.9926202455509028)"><path d="M4.91 10.92L4.91 10.92Q4.33 10.92 3.76 10.66L3.76 10.66L3.76 10.66Q3.19 10.40 2.77 10.09L2.77 10.09L2.77 10.09Q2.18 9.65 2.07 9.65L2.07 9.65L2.07 9.65Q1.79 9.65 1.71 10.25L1.71 10.25L1.65 10.81L1.33 10.81L1.23 6.38L1.57 6.38L1.57 6.38Q1.65 7.42 2.15 8.37L2.15 8.37L2.15 8.37Q2.65 9.31 3.39 9.89L3.39 9.89L3.39 9.89Q4.13 10.47 4.91 10.47L4.91 10.47L4.91 10.47Q6.06 10.47 6.59 9.91L6.59 9.91L6.59 9.91Q7.11 9.35 7.11 8.57L7.11 8.57L7.11 8.57Q7.11 7.88 6.71 7.49L6.71 7.49L6.71 7.49Q6.31 7.10 5.54 6.79L5.54 6.79L3.42 5.94L3.42 5.94Q2.31 5.49 1.79 4.78L1.79 4.78L1.79 4.78Q1.26 4.07 1.26 3.08L1.26 3.08L1.26 3.08Q1.26 1.74 2.04 1.09L2.04 1.09L2.04 1.09Q2.83 0.45 4.00 0.45L4.00 0.45L4.00 0.45Q4.93 0.45 6.05 1.29L6.05 1.29L6.05 1.29Q6.19 1.39 6.33 1.46L6.33 1.46L6.33 1.46Q6.47 1.54 6.58 1.54L6.58 1.54L6.58 1.54Q6.82 1.54 6.86 1.20L6.86 1.20L6.92 0.70L7.25 0.70L7.39 4.34L7.06 4.34L7.06 4.34Q6.83 3.33 6.35 2.55L6.35 2.55L6.35 2.55Q5.87 1.76 5.22 1.33L5.22 1.33L5.22 1.33Q4.58 0.90 3.89 0.90L3.89 0.90L3.89 0.90Q3.11 0.90 2.60 1.41L2.60 1.41L2.60 1.41Q2.10 1.92 2.10 2.83L2.10 2.83L2.10 2.83Q2.10 3.46 2.42 3.81L2.42 3.81L2.42 3.81Q2.74 4.16 3.37 4.41L3.37 4.41L6.08 5.49L6.08 5.49Q7.01 5.87 7.48 6.57L7.48 6.57L7.48 6.57Q7.95 7.27 7.95 8.04L7.95 8.04L7.95 8.04Q7.95 8.78 7.62 9.44L7.62 9.44L7.62 9.44Q7.29 10.09 6.62 10.51L6.62 10.51L6.62 10.51Q5.94 10.92 4.91 10.92L4.91 10.92ZM12.10 10.84L12.10 10.84Q11.28 10.84 10.66 10.39L10.66 10.39L10.66 10.39Q10.04 9.94 9.70 9.17L9.70 9.17L9.70 9.17Q9.35 8.40 9.35 7.48L9.35 7.48L9.35 7.48Q9.35 6.55 9.70 5.78L9.70 5.78L9.70 5.78Q10.05 5.01 10.68 4.56L10.68 4.56L10.68 4.56Q11.30 4.12 12.10 4.12L12.10 4.12L12.10 4.12Q12.74 4.12 13.22 4.39L13.22 4.39L13.22 4.39Q13.69 4.66 13.94 5.09L13.94 5.09L13.94 5.09Q14.20 5.52 14.20 5.95L14.20 5.95L14.20 5.95Q14.20 6.38 13.97 6.63L13.97 6.63L13.97 6.63Q13.75 6.87 13.43 6.87L13.43 6.87L13.43 6.87Q13.15 6.87 12.96 6.69L12.96 6.69L12.96 6.69Q12.77 6.51 12.77 6.26L12.77 6.26L12.77 6.26Q12.77 6.01 12.91 5.84L12.91 5.84L12.91 5.84Q13.05 5.67 13.24 5.61L13.24 5.61L13.24 5.61Q13.47 5.54 13.47 5.36L13.47 5.36L13.47 5.36Q13.47 5.19 13.32 4.98L13.32 4.98L13.32 4.98Q13.17 4.77 12.87 4.61L12.87 4.61L12.87 4.61Q12.56 4.45 12.10 4.45L12.10 4.45L12.10 4.45Q11.21 4.45 10.90 5.21L10.90 5.21L10.90 5.21Q10.58 5.96 10.58 7.48L10.58 7.48L10.58 7.48Q10.58 8.99 10.89 9.74L10.89 9.74L10.89 9.74Q11.20 10.50 12.10 10.50L12.10 10.50L12.10 10.50Q12.95 10.50 13.41 9.90L13.41 9.90L13.41 9.90Q13.87 9.30 13.97 8.48L13.97 8.48L14.31 8.48L14.31 8.48Q14.27 9.06 14.01 9.60L14.01 9.60L14.01 9.60Q13.76 10.14 13.27 10.49L13.27 10.49L13.27 10.49Q12.78 10.84 12.10 10.84L12.10 10.84ZM15.18 10.67L15.18 10.33L15.96 10.33L15.96 10.33Q16.13 10.33 16.20 10.26L16.20 10.26L16.20 10.26Q16.27 10.19 16.27 10.02L16.27 10.02L16.27 1.34L16.27 1.34Q16.27 1.18 16.20 1.11L16.20 1.11L16.20 1.11Q16.13 1.04 15.96 1.04L15.96 1.04L15.18 1.04L15.18 0.70L17.28 0.70L17.28 5.43L17.33 5.45L17.33 5.45Q17.65 4.77 18.13 4.45L18.13 4.45L18.13 4.45Q18.61 4.12 19.18 4.12L19.18 4.12L19.18 4.12Q20.20 4.12 20.63 4.75L20.63 4.75L20.63 4.75Q21.06 5.38 21.06 6.26L21.06 6.26L21.06 10.02L21.06 10.02Q21.06 10.19 21.13 10.26L21.13 10.26L21.13 10.26Q21.20 10.33 21.36 10.33L21.36 10.33L21.95 10.33L21.95 10.67L19.15 10.67L19.15 10.33L19.74 10.33L19.74 10.33Q19.91 10.33 19.98 10.26L19.98 10.26L19.98 10.26Q20.05 10.19 20.05 10.02L20.05 10.02L20.05 5.99L20.05 5.99Q20.05 5.38 19.80 4.94L19.80 4.94L19.80 4.94Q19.56 4.51 18.97 4.51L18.97 4.51L18.97 4.51Q18.48 4.51 18.09 4.85L18.09 4.85L18.09 4.85Q17.71 5.19 17.49 5.79L17.49 5.79L17.49 5.79Q17.28 6.38 17.28 7.11L17.28 7.11L17.28 10.02L17.28 10.02Q17.28 10.19 17.35 10.26L17.35 10.26L17.35 10.26Q17.42 10.33 17.58 10.33L17.58 10.33L18.17 10.33L18.17 10.67L15.18 10.67ZM25.87 10.84L25.87 10.84Q25.10 10.84 24.46 10.38L24.46 10.38L24.46 10.38Q23.81 9.93 23.44 9.16L23.44 9.16L23.44 9.16Q23.07 8.39 23.07 7.48L23.07 7.48L23.07 7.48Q23.07 6.57 23.44 5.80L23.44 5.80L23.44 5.80Q23.81 5.03 24.46 4.57L24.46 4.57L24.46 4.57Q25.10 4.12 25.87 4.12L25.87 4.12L25.87 4.12Q26.64 4.12 27.29 4.57L27.29 4.57L27.29 4.57Q27.93 5.03 28.30 5.80L28.30 5.80L28.30 5.80Q28.67 6.57 28.67 7.48L28.67 7.48L28.67 7.48Q28.67 8.39 28.30 9.16L28.30 9.16L28.30 9.16Q27.93 9.93 27.29 10.38L27.29 10.38L27.29 10.38Q26.64 10.84 25.87 10.84L25.87 10.84ZM25.87 10.50L25.87 10.50Q26.71 10.50 27.08 9.71L27.08 9.71L27.08 9.71Q27.44 8.92 27.44 7.48L27.44 7.48L27.44 7.48Q27.44 6.03 27.08 5.24L27.08 5.24L27.08 5.24Q26.71 4.45 25.87 4.45L25.87 4.45L25.87 4.45Q25.03 4.45 24.67 5.24L24.67 5.24L24.67 5.24Q24.30 6.03 24.30 7.48L24.30 7.48L24.30 7.48Q24.30 8.92 24.67 9.71L24.67 9.71L24.67 9.71Q25.03 10.50 25.87 10.50L25.87 10.50ZM32.82 10.84L32.82 10.84Q32.05 10.84 31.40 10.38L31.40 10.38L31.40 10.38Q30.76 9.93 30.39 9.16L30.39 9.16L30.39 9.16Q30.02 8.39 30.02 7.48L30.02 7.48L30.02 7.48Q30.02 6.57 30.39 5.80L30.39 5.80L30.39 5.80Q30.76 5.03 31.40 4.57L31.40 4.57L31.40 4.57Q32.05 4.12 32.82 4.12L32.82 4.12L32.82 4.12Q33.59 4.12 34.23 4.57L34.23 4.57L34.23 4.57Q34.87 5.03 35.24 5.80L35.24 5.80L35.24 5.80Q35.62 6.57 35.62 7.48L35.62 7.48L35.62 7.48Q35.62 8.39 35.24 9.16L35.24 9.16L35.24 9.16Q34.87 9.93 34.23 10.38L34.23 10.38L34.23 10.38Q33.59 10.84 32.82 10.84L32.82 10.84ZM32.82 10.50L32.82 10.50Q33.66 10.50 34.02 9.71L34.02 9.71L34.02 9.71Q34.38 8.92 34.38 7.48L34.38 7.48L34.38 7.48Q34.38 6.03 34.02 5.24L34.02 5.24L34.02 5.24Q33.66 4.45 32.82 4.45L32.82 4.45L32.82 4.45Q31.98 4.45 31.61 5.24L31.61 5.24L31.61 5.24Q31.25 6.03 31.25 7.48L31.25 7.48L31.25 7.48Q31.25 8.92 31.61 9.71L31.61 9.71L31.61 9.71Q31.98 10.50 32.82 10.50L32.82 10.50ZM36.68 10.67L36.68 10.33L37.41 10.33L37.41 10.33Q37.58 10.33 37.65 10.26L37.65 10.26L37.65 10.26Q37.72 10.19 37.72 10.02L37.72 10.02L37.72 1.34L37.72 1.34Q37.72 1.18 37.65 1.11L37.65 1.11L37.65 1.11Q37.58 1.04 37.41 1.04L37.41 1.04L36.68 1.04L36.68 0.70L38.72 0.70L38.72 10.02L38.72 10.02Q38.72 10.19 38.79 10.26L38.79 10.26L38.79 10.26Q38.86 10.33 39.03 10.33L39.03 10.33L39.76 10.33L39.76 10.67L36.68 10.67ZM47.46 10.84L47.46 10.84Q46.69 10.84 46.05 10.38L46.05 10.38L46.05 10.38Q45.40 9.93 45.03 9.16L45.03 9.16L45.03 9.16Q44.66 8.39 44.66 7.48L44.66 7.48L44.66 7.48Q44.66 6.57 45.03 5.80L45.03 5.80L45.03 5.80Q45.40 5.03 46.05 4.57L46.05 4.57L46.05 4.57Q46.69 4.12 47.46 4.12L47.46 4.12L47.46 4.12Q48.23 4.12 48.87 4.57L48.87 4.57L48.87 4.57Q49.52 5.03 49.89 5.80L49.89 5.80L49.89 5.80Q50.26 6.57 50.26 7.48L50.26 7.48L50.26 7.48Q50.26 8.39 49.89 9.16L49.89 9.16L49.89 9.16Q49.52 9.93 48.87 10.38L48.87 10.38L48.87 10.38Q48.23 10.84 47.46 10.84L47.46 10.84ZM47.46 10.50L47.46 10.50Q48.30 10.50 48.66 9.71L48.66 9.71L48.66 9.71Q49.03 8.92 49.03 7.48L49.03 7.48L49.03 7.48Q49.03 6.03 48.66 5.24L48.66 5.24L48.66 5.24Q48.30 4.45 47.46 4.45L47.46 4.45L47.46 4.45Q46.62 4.45 46.26 5.24L46.26 5.24L46.26 5.24Q45.89 6.03 45.89 7.48L45.89 7.48L45.89 7.48Q45.89 8.92 46.26 9.71L46.26 9.71L46.26 9.71Q46.62 10.50 47.46 10.50L47.46 10.50ZM51.32 10.67L51.32 10.33L52.05 10.33L52.05 10.33Q52.22 10.33 52.29 10.26L52.29 10.26L52.29 10.26Q52.36 10.19 52.36 10.02L52.36 10.02L52.36 4.68L51.32 4.68L51.32 4.28L52.36 4.28L52.36 3.32L52.36 3.32Q52.36 2.38 52.68 1.76L52.68 1.76L52.68 1.76Q52.99 1.15 53.48 0.87L53.48 0.87L53.48 0.87Q53.97 0.59 54.50 0.59L54.50 0.59L54.50 0.59Q55.10 0.59 55.52 0.96L55.52 0.96L55.52 0.96Q55.94 1.33 55.94 2.02L55.94 2.02L55.94 2.02Q55.94 2.38 55.77 2.59L55.77 2.59L55.77 2.59Q55.59 2.80 55.29 2.80L55.29 2.80L55.29 2.80Q55.03 2.80 54.87 2.64L54.87 2.64L54.87 2.64Q54.71 2.48 54.71 2.21L54.71 2.21L54.71 2.21Q54.71 2.07 54.78 1.93L54.78 1.93L54.78 1.93Q54.85 1.79 54.96 1.71L54.96 1.71L54.96 1.71Q55.19 1.58 55.19 1.37L55.19 1.37L55.19 1.37Q55.19 1.13 54.97 1.03L54.97 1.03L54.97 1.03Q54.75 0.92 54.47 0.92L54.47 0.92L54.47 0.92Q54.01 0.92 53.69 1.37L53.69 1.37L53.69 1.37Q53.37 1.82 53.37 2.93L53.37 2.93L53.37 4.28L54.68 4.28L54.68 4.68L53.37 4.68L53.37 10.02L53.37 10.02Q53.37 10.19 53.44 10.26L53.44 10.26L53.44 10.26Q53.51 10.33 53.68 10.33L53.68 10.33L54.68 10.33L54.68 10.67L51.32 10.67ZM64.60 10.92L64.60 10.92Q63.29 10.92 62.36 10.16L62.36 10.16L62.36 10.16Q61.42 9.41 60.94 8.18L60.94 8.18L60.94 8.18Q60.45 6.96 60.45 5.60L60.45 5.60L60.45 5.60Q60.45 4.19 60.93 3.01L60.93 3.01L60.93 3.01Q61.40 1.83 62.29 1.14L62.29 1.14L62.29 1.14Q63.17 0.45 64.34 0.45L64.34 0.45L64.34 0.45Q64.96 0.45 65.51 0.73L65.51 0.73L65.51 0.73Q66.05 1.01 66.40 1.33L66.40 1.33L66.40 1.33Q66.74 1.64 66.85 1.64L66.85 1.64L66.85 1.64Q66.96 1.64 67.01 1.57L67.01 1.57L67.01 1.57Q67.06 1.50 67.12 1.34L67.12 1.34L67.38 0.56L67.73 0.56L67.79 4.90L67.40 4.90L67.40 4.90Q67.09 3.57 66.60 2.67L66.60 2.67L66.60 2.67Q66.11 1.76 65.53 1.33L65.53 1.33L65.53 1.33Q64.95 0.90 64.37 0.90L64.37 0.90L64.37 0.90Q63.04 0.90 62.49 2.10L62.49 2.10L62.49 2.10Q61.94 3.30 61.94 5.60L61.94 5.60L61.94 5.60Q61.94 7.97 62.51 9.22L62.51 9.22L62.51 9.22Q63.08 10.47 64.60 10.47L64.60 10.47L64.60 10.47Q65.94 10.47 66.65 9.47L66.65 9.47L66.65 9.47Q67.35 8.47 67.45 7.04L67.45 7.04L67.96 7.04L67.96 7.04Q67.91 7.87 67.61 8.75L67.61 8.75L67.61 8.75Q67.31 9.63 66.57 10.28L66.57 10.28L66.57 10.28Q65.83 10.92 64.60 10.92L64.60 10.92ZM72.32 10.84L72.32 10.84Q71.55 10.84 70.91 10.38L70.91 10.38L70.91 10.38Q70.27 9.93 69.90 9.16L69.90 9.16L69.90 9.16Q69.52 8.39 69.52 7.48L69.52 7.48L69.52 7.48Q69.52 6.57 69.90 5.80L69.90 5.80L69.90 5.80Q70.27 5.03 70.91 4.57L70.91 4.57L70.91 4.57Q71.55 4.12 72.32 4.12L72.32 4.12L72.32 4.12Q73.09 4.12 73.74 4.57L73.74 4.57L73.74 4.57Q74.38 5.03 74.75 5.80L74.75 5.80L74.75 5.80Q75.12 6.57 75.12 7.48L75.12 7.48L75.12 7.48Q75.12 8.39 74.75 9.16L74.75 9.16L74.75 9.16Q74.38 9.93 73.74 10.38L73.74 10.38L73.74 10.38Q73.09 10.84 72.32 10.84L72.32 10.84ZM72.32 10.50L72.32 10.50Q73.16 10.50 73.53 9.71L73.53 9.71L73.53 9.71Q73.89 8.92 73.89 7.48L73.89 7.48L73.89 7.48Q73.89 6.03 73.53 5.24L73.53 5.24L73.53 5.24Q73.16 4.45 72.32 4.45L72.32 4.45L72.32 4.45Q71.48 4.45 71.12 5.24L71.12 5.24L71.12 5.24Q70.76 6.03 70.76 7.48L70.76 7.48L70.76 7.48Q70.76 8.92 71.12 9.71L71.12 9.71L71.12 9.71Q71.48 10.50 72.32 10.50L72.32 10.50ZM79.27 10.84L79.27 10.84Q78.50 10.84 77.85 10.38L77.85 10.38L77.85 10.38Q77.21 9.93 76.84 9.16L76.84 9.16L76.84 9.16Q76.47 8.39 76.47 7.48L76.47 7.48L76.47 7.48Q76.47 6.57 76.84 5.80L76.84 5.80L76.84 5.80Q77.21 5.03 77.85 4.57L77.85 4.57L77.85 4.57Q78.50 4.12 79.27 4.12L79.27 4.12L79.27 4.12Q80.04 4.12 80.68 4.57L80.68 4.57L80.68 4.57Q81.33 5.03 81.70 5.80L81.70 5.80L81.70 5.80Q82.07 6.57 82.07 7.48L82.07 7.48L82.07 7.48Q82.07 8.39 81.70 9.16L81.70 9.16L81.70 9.16Q81.33 9.93 80.68 10.38L80.68 10.38L80.68 10.38Q80.04 10.84 79.27 10.84L79.27 10.84ZM79.27 10.50L79.27 10.50Q80.11 10.50 80.47 9.71L80.47 9.71L80.47 9.71Q80.84 8.92 80.84 7.48L80.84 7.48L80.84 7.48Q80.84 6.03 80.47 5.24L80.47 5.24L80.47 5.24Q80.11 4.45 79.27 4.45L79.27 4.45L79.27 4.45Q78.43 4.45 78.06 5.24L78.06 5.24L78.06 5.24Q77.70 6.03 77.70 7.48L77.70 7.48L77.70 7.48Q77.70 8.92 78.06 9.71L78.06 9.71L78.06 9.71Q78.43 10.50 79.27 10.50L79.27 10.50ZM83.13 10.67L83.13 10.33L83.86 10.33L83.86 10.33Q84.03 10.33 84.10 10.26L84.10 10.26L84.10 10.26Q84.17 10.19 84.17 10.02L84.17 10.02L84.17 1.34L84.17 1.34Q84.17 1.18 84.10 1.11L84.10 1.11L84.10 1.11Q84.03 1.04 83.86 1.04L83.86 1.04L83.13 1.04L83.13 0.70L85.18 0.70L85.18 7.83L87.08 5.50L87.08 5.50Q87.23 5.33 87.28 5.24L87.28 5.24L87.28 5.24Q87.33 5.14 87.33 4.98L87.33 4.98L87.33 4.98Q87.33 4.80 87.20 4.71L87.20 4.71L87.20 4.71Q87.07 4.62 86.86 4.62L86.86 4.62L86.49 4.62L86.49 4.28L89.35 4.28L89.35 4.62L88.90 4.62L88.90 4.62Q88.52 4.62 88.23 4.82L88.23 4.82L88.23 4.82Q87.93 5.01 87.56 5.47L87.56 5.47L86.49 6.78L88.68 9.88L88.68 9.88Q88.84 10.12 88.97 10.23L88.97 10.23L88.97 10.23Q89.10 10.33 89.32 10.33L89.32 10.33L89.60 10.33L89.60 10.67L86.63 10.67L86.63 10.33L87.00 10.33L87.00 10.33Q87.18 10.33 87.28 10.27L87.28 10.27L87.28 10.27Q87.37 10.21 87.37 10.05L87.37 10.05L87.37 10.05Q87.37 9.90 87.33 9.80L87.33 9.80L87.33 9.80Q87.29 9.70 87.19 9.55L87.19 9.55L85.82 7.59L85.18 8.37L85.18 10.02L85.18 10.02Q85.18 10.19 85.25 10.26L85.25 10.26L85.25 10.26Q85.32 10.33 85.48 10.33L85.48 10.33L85.93 10.33L85.93 10.67L83.13 10.67ZM91.87 2.55L91.87 2.55Q91.56 2.55 91.35 2.34L91.35 2.34L91.35 2.34Q91.14 2.13 91.14 1.82L91.14 1.82L91.14 1.82Q91.14 1.50 91.35 1.30L91.35 1.30L91.35 1.30Q91.56 1.09 91.87 1.09L91.87 1.09L91.87 1.09Q92.19 1.09 92.39 1.30L92.39 1.30L92.39 1.30Q92.60 1.50 92.60 1.82L92.60 1.82L92.60 1.82Q92.60 2.13 92.39 2.34L92.39 2.34L92.39 2.34Q92.19 2.55 91.87 2.55L91.87 2.55ZM90.55 10.67L90.55 10.33L91.14 10.33L91.14 10.33Q91.31 10.33 91.38 10.26L91.38 10.26L91.38 10.26Q91.45 10.19 91.45 10.02L91.45 10.02L91.45 4.93L91.45 4.93Q91.45 4.76 91.38 4.69L91.38 4.69L91.38 4.69Q91.31 4.62 91.14 4.62L91.14 4.62L90.55 4.62L90.55 4.28L92.46 4.28L92.46 10.02L92.46 10.02Q92.46 10.19 92.53 10.26L92.53 10.26L92.53 10.26Q92.60 10.33 92.76 10.33L92.76 10.33L93.35 10.33L93.35 10.67L90.55 10.67ZM94.33 10.67L94.33 10.33L94.92 10.33L94.92 10.33Q95.09 10.33 95.16 10.26L95.16 10.26L95.16 10.26Q95.23 10.19 95.23 10.02L95.23 10.02L95.23 4.93L95.23 4.93Q95.23 4.76 95.16 4.69L95.16 4.69L95.16 4.69Q95.09 4.62 94.92 4.62L94.92 4.62L94.33 4.62L94.33 4.28L96.24 4.28L96.24 5.43L96.29 5.45L96.29 5.45Q96.61 4.77 97.09 4.45L97.09 4.45L97.09 4.45Q97.57 4.12 98.14 4.12L98.14 4.12L98.14 4.12Q99.16 4.12 99.59 4.75L99.59 4.75L99.59 4.75Q100.02 5.38 100.02 6.26L100.02 6.26L100.02 10.02L100.02 10.02Q100.02 10.19 100.09 10.26L100.09 10.26L100.09 10.26Q100.16 10.33 100.32 10.33L100.32 10.33L100.91 10.33L100.91 10.67L98.11 10.67L98.11 10.33L98.70 10.33L98.70 10.33Q98.87 10.33 98.94 10.26L98.94 10.26L98.94 10.26Q99.01 10.19 99.01 10.02L99.01 10.02L99.01 5.99L99.01 5.99Q99.01 5.38 98.76 4.94L98.76 4.94L98.76 4.94Q98.52 4.51 97.93 4.51L97.93 4.51L97.93 4.51Q97.44 4.51 97.06 4.85L97.06 4.85L97.06 4.85Q96.67 5.19 96.45 5.79L96.45 5.79L96.45 5.79Q96.24 6.38 96.24 7.11L96.24 7.11L96.24 10.02L96.24 10.02Q96.24 10.19 96.31 10.26L96.31 10.26L96.31 10.26Q96.38 10.33 96.54 10.33L96.54 10.33L97.13 10.33L97.13 10.67L94.33 10.67ZM105.11 14L105.11 14Q103.88 14 102.98 13.61L102.98 13.61L102.98 13.61Q102.09 13.22 102.09 12.38L102.09 12.38L102.09 12.38Q102.09 11.86 102.49 11.47L102.49 11.47L102.49 11.47Q102.90 11.07 103.46 10.99L103.46 10.99L103.46 10.95L103.46 10.95Q102.23 10.68 102.23 9.91L102.23 9.91L102.23 9.91Q102.23 9.34 102.67 9.01L102.67 9.01L102.67 9.01Q103.11 8.68 103.75 8.57L103.75 8.57L103.75 8.53L103.75 8.53Q103.17 8.27 102.75 7.76L102.75 7.76L102.75 7.76Q102.34 7.25 102.34 6.41L102.34 6.41L102.34 6.41Q102.34 5.70 102.69 5.18L102.69 5.18L102.69 5.18Q103.04 4.66 103.61 4.39L103.61 4.39L103.61 4.39Q104.17 4.12 104.83 4.12L104.83 4.12L104.83 4.12Q105.24 4.12 105.64 4.25L105.64 4.25L105.64 4.25Q106.04 4.38 106.32 4.56L106.32 4.56L106.32 4.56Q106.61 4.73 106.69 4.84L106.69 4.84L106.69 4.84Q106.82 4.48 107.10 4.30L107.10 4.30L107.10 4.30Q107.38 4.12 107.66 4.12L107.66 4.12L107.66 4.12Q108.14 4.12 108.44 4.40L108.44 4.40L108.44 4.40Q108.75 4.68 108.75 5.12L108.75 5.12L108.75 5.12Q108.75 5.46 108.59 5.67L108.59 5.67L108.59 5.67Q108.43 5.88 108.16 5.88L108.16 5.88L108.16 5.88Q107.94 5.88 107.77 5.76L107.77 5.76L107.77 5.76Q107.60 5.64 107.60 5.38L107.60 5.38L107.60 5.38Q107.60 5.07 107.84 4.93L107.84 4.93L107.84 4.93Q107.93 4.87 107.96 4.82L107.96 4.82L107.96 4.82Q108.00 4.77 108.00 4.68L108.00 4.68L108.00 4.68Q108.00 4.56 107.88 4.51L107.88 4.51L107.88 4.51Q107.77 4.45 107.62 4.45L107.62 4.45L107.62 4.45Q107.37 4.45 107.16 4.66L107.16 4.66L107.16 4.66Q106.96 4.86 106.93 5.12L106.93 5.12L106.93 5.12Q107.32 5.67 107.32 6.41L107.32 6.41L107.32 6.41Q107.32 7.11 106.99 7.64L106.99 7.64L106.99 7.64Q106.65 8.16 106.09 8.44L106.09 8.44L106.09 8.44Q105.52 8.71 104.83 8.71L104.83 8.71L104.83 8.71Q104.03 8.71 103.41 8.93L103.41 8.93L103.41 8.93Q102.79 9.14 102.79 9.65L102.79 9.65L102.79 9.65Q102.79 9.91 103.03 10.01L103.03 10.01L103.03 10.01Q103.26 10.11 103.68 10.11L103.68 10.11L103.68 10.11Q103.98 10.11 104.16 10.09L104.16 10.09L104.16 10.09Q104.33 10.08 104.59 10.08L104.59 10.08L106.04 10.08L106.04 10.08Q106.93 10.08 107.53 10.56L107.53 10.56L107.53 10.56Q108.14 11.05 108.14 11.98L108.14 11.98L108.14 11.98Q108.14 12.96 107.30 13.48L107.30 13.48L107.30 13.48Q106.47 14 105.11 14L105.11 14ZM104.83 8.37L104.83 8.37Q105.48 8.37 105.84 7.85L105.84 7.85L105.84 7.85Q106.20 7.34 106.20 6.41L106.20 6.41L106.20 6.41Q106.20 5.49 105.84 4.97L105.84 4.97L105.84 4.97Q105.48 4.45 104.83 4.45L104.83 4.45L104.83 4.45Q104.19 4.45 103.82 4.97L103.82 4.97L103.82 4.97Q103.46 5.49 103.46 6.41L103.46 6.41L103.46 6.41Q103.46 7.34 103.82 7.85L103.82 7.85L103.82 7.85Q104.19 8.37 104.83 8.37L104.83 8.37ZM105.11 13.66L105.11 13.66Q106.12 13.66 106.88 13.31L106.88 13.31L106.88 13.31Q107.63 12.95 107.63 12.10L107.63 12.10L107.63 12.10Q107.63 11.66 107.37 11.35L107.37 11.35L107.37 11.35Q107.11 11.03 106.47 11.03L106.47 11.03L104.92 11.03L104.92 11.03Q104.02 11.03 103.36 11.33L103.36 11.33L103.36 11.33Q102.70 11.63 102.70 12.35L102.70 12.35L102.70 12.35Q102.70 13.01 103.45 13.34L103.45 13.34L103.45 13.34Q104.19 13.66 105.11 13.66L105.11 13.66Z"></path></g><!----><!----></svg>